<svg width="500" height="287" viewBox="0 0 500 287" fill="none" xmlns="http://www.w3.org/2000/svg">
<path d="M140.349 103.399L85.3799 128.473L110.454 183.443L165.423 158.368L140.349 103.399Z" fill="url(#paint0_linear)"/>
<path d="M139.251 106.328L88.3066 129.566L111.545 180.511L162.49 157.273L139.251 106.328Z" fill="#69F0AE"/>
<path d="M112.453 145.655L125.571 149.915L129.888 124.667L136.272 126.412L129.091 157.627L109.306 148.955L112.453 145.655Z" fill="url(#paint1_linear)"/>
<path d="M114.124 145.322L125.531 149.023L129.282 127.068L134.83 128.588L128.587 155.729L111.384 148.192L114.124 145.322Z" fill="white"/>
<path d="M392.927 80.2599L347.322 98.0396C338.746 97.4011 320.701 95.0734 302.791 86.6271C282.853 77.226 260.011 77.2486 240.644 87.0961C196.011 88.1638 171.446 82.4463 158.339 77.0339L161.797 69.9379L115.571 51.9153L0 0.118652V212.412L40.4463 230.435L62.1412 178.39L109.785 200.424L118.932 177.181L150.215 200.395L152.345 202.186L149.412 205.232C146.724 208.071 145.226 211.833 145.226 215.743C145.226 219.653 146.724 223.415 149.412 226.254C150.713 227.63 152.281 228.725 154.02 229.474C155.759 230.222 157.632 230.609 159.525 230.609C161.419 230.609 163.292 230.222 165.031 229.474C166.77 228.725 168.337 227.63 169.638 226.254L168.034 227.949C165.345 230.789 163.847 234.55 163.847 238.46C163.847 242.371 165.345 246.132 168.034 248.972C169.335 250.347 170.903 251.443 172.642 252.191C174.38 252.94 176.254 253.326 178.147 253.326C180.04 253.326 181.913 252.94 183.652 252.191C185.391 251.443 186.959 250.347 188.26 248.972L197.525 239.339L191.164 245.949C188.475 248.789 186.977 252.55 186.977 256.46C186.977 260.371 188.475 264.132 191.164 266.972C192.465 268.347 194.033 269.443 195.772 270.191C197.51 270.94 199.384 271.326 201.277 271.326C203.17 271.326 205.043 270.94 206.782 270.191C208.521 269.443 210.089 268.347 211.39 266.972L220.537 257.463L216.689 261.463C214.81 263.447 213.762 266.075 213.762 268.808C213.762 271.54 214.81 274.169 216.689 276.153C217.598 277.113 218.693 277.878 219.907 278.4C221.121 278.923 222.429 279.192 223.751 279.192C225.073 279.192 226.381 278.923 227.596 278.4C228.81 277.878 229.905 277.113 230.814 276.153L236.915 269.814C247.395 277.469 255.876 283.057 260.028 284.503C277.333 290.503 277.333 278.486 277.333 278.486C300.446 290.497 312.006 266.475 312.006 266.475C340.898 278.486 340.898 248.452 340.898 248.452C348.119 253.458 353.328 251.164 356.966 246.757C361.921 240.78 362.525 232.345 359.124 225.576L386.74 200.057L398.684 224.475L446.328 202.441L468.023 250.537L499.972 236.271V26.1978L392.927 80.2599Z" fill="url(#paint2_linear)"/>
<path d="M385.254 191.429L334.961 236.13L295.848 163.486L385.254 141.136V191.429Z" fill="#BE7C5E"/>
<path d="M144.972 74.0791C144.972 74.0791 161.113 96.4294 256.729 90.8418L312.61 174.661L350.056 216.791C355.938 223.412 356.271 233.452 350.497 240.164C346.989 244.237 341.943 246.379 334.96 241.717C334.96 241.717 334.96 269.655 307.023 258.48C307.023 258.48 295.847 280.83 273.497 269.655C273.497 269.655 273.497 280.83 256.734 275.243C239.972 269.655 150.559 197.017 150.559 197.017L111.446 169.079L144.972 74.0791Z" fill="#FDA57D"/>
<path d="M346.136 102.023C346.136 102.023 321.989 102.023 298.113 91.1808C276.401 81.3333 251.119 82.5876 231.085 95.5141C214.757 106.051 200.61 123.497 200.876 152.311C200.876 152.311 222.605 174.661 245.576 129.96H262.339C262.339 129.96 278.48 185.842 323.808 180.243C369.136 174.644 379.689 169.068 379.689 169.068L346.136 102.023Z" fill="#BE7C5E"/>
<path d="M199.435 212.359L197.621 210.546C192.721 205.645 184.776 205.645 179.875 210.546L166.888 223.533C161.987 228.434 161.987 236.379 166.888 241.279L168.701 243.093C173.602 247.993 181.547 247.993 186.447 243.093L199.435 230.105C204.335 225.205 204.335 217.26 199.435 212.359Z" fill="#BE7C5E"/>
<path d="M181.425 191.25L179.611 189.437C174.711 184.536 166.766 184.536 161.865 189.437L148.878 202.424C143.978 207.325 143.978 215.27 148.878 220.17L150.692 221.984C155.592 226.884 163.537 226.884 168.437 221.984L181.425 208.996C186.325 204.096 186.325 196.151 181.425 191.25Z" fill="#BE7C5E"/>
<path d="M224.577 226.324L222.763 224.511C217.863 219.61 209.918 219.61 205.018 224.511L189.238 240.291C184.337 245.191 184.337 253.136 189.238 258.036L191.051 259.85C195.952 264.75 203.897 264.75 208.797 259.85L224.577 244.07C229.477 239.17 229.477 231.225 224.577 226.324Z" fill="#BE7C5E"/>
<path d="M237.809 245.766L236.543 244.5C233.121 241.078 227.573 241.078 224.151 244.5L214.191 254.46C210.769 257.882 210.769 263.43 214.191 266.852L215.457 268.118C218.88 271.54 224.428 271.54 227.85 268.118L237.809 258.159C241.231 254.737 241.231 249.189 237.809 245.766Z" fill="#BE7C5E"/>
<path d="M441.13 202.605L390.842 224.955L340.548 102.023L385.254 85.2599L441.13 202.605Z" fill="white"/>
<path d="M61.1582 174.667L111.446 197.017L161.74 74.0847L117.034 57.3164L61.1582 174.667Z" fill="white"/>
<path d="M5.27734 7.02825L117.034 57.3164L44.396 224.955L5.27734 208.192V7.02825Z" fill="#333333"/>
<path d="M497.011 34.9661L385.254 85.2599L457.898 252.893L497.011 236.13V34.9661Z" fill="#4D8AF0"/>
<defs>
<linearGradient id="paint0_linear" x1="32551.9" y1="7273.03" x2="29870.7" y2="1395.16" gradientUnits="userSpaceOnUse">
<stop stop-color="#808080" stop-opacity="0.25"/>
<stop offset="0.54" stop-color="#808080" stop-opacity="0.12"/>
<stop offset="1" stop-color="#808080" stop-opacity="0.1"/>
</linearGradient>
<linearGradient id="paint1_linear" x1="14940" y1="4341.35" x2="14222" y2="2767.28" gradientUnits="userSpaceOnUse">
<stop stop-color="#808080" stop-opacity="0.25"/>
<stop offset="0.54" stop-color="#808080" stop-opacity="0.12"/>
<stop offset="1" stop-color="#808080" stop-opacity="0.1"/>
</linearGradient>
<linearGradient id="paint2_linear" x1="299793" y1="173669" x2="299793" y2="28829.5" gradientUnits="userSpaceOnUse">
<stop stop-color="#808080" stop-opacity="0.25"/>
<stop offset="0.54" stop-color="#808080" stop-opacity="0.12"/>
<stop offset="1" stop-color="#808080" stop-opacity="0.1"/>
</linearGradient>
</defs>
</svg>
